<svg width="24" height="24" viewBox="0 0 24 24" fill="none" xmlns="http://www.w3.org/2000/svg">
<path d="M18.7999 11.3C19.0999 11.4 19.3999 11.5 19.5999 11.5C20.0999 11.5 20.5999 11.3 20.9999 10.9C21.5999 10.3 21.6999 9.49999 21.3999 8.69997C21.1999 8.29997 20.8999 7.89998 20.4999 7.79997C19.6999 7.49997 18.8999 7.59998 18.2999 8.19998C17.6999 8.79998 17.5999 9.59997 17.8999 10.4C18.0999 10.8 18.3999 11.1 18.7999 11.3ZM19 8.89999C19.2 8.7 19.4 8.59999 19.7 8.59999C19.8 8.59999 20 8.59999 20.1 8.7C20.3 8.8 20.4 8.89999 20.5 9.1C20.7 9.50001 20.6 9.9 20.3 10.2C20 10.5 19.6 10.6 19.2 10.4C19 10.3 18.9 10.2 18.8 9.99998C18.6 9.59997 18.7 9.19999 19 8.89999H19ZM23.2 14.9C21.1 12.8 17.7 12.8 15.6 14.9C15.4 15.1 15.4 15.4 15.6 15.6C15.7999 15.8 16.0999 15.8 16.3 15.6C18 13.9 20.8 13.9 22.5 15.6C22.6 15.7 22.6999 15.7 22.9 15.7C23 15.7 23.2 15.7 23.3 15.6C23.4 15.5 23.4 15.1 23.2 14.9ZM14.2999 7.3H11.4C11.1 7.3 10.9 7.5 10.9 7.8V10.7C10.9 11 11.1 11.2 11.4 11.2H14.2999C14.5999 11.2 14.7999 11 14.7999 10.7V7.8C14.7999 7.6 14.5999 7.3 14.2999 7.3ZM13.8 10.2H11.8999V8.29999H13.8V10.2ZM8.49996 8.29999C8.59997 8.4 8.69995 8.4 8.79996 8.4C8.89997 8.4 9.09996 8.29999 9.19997 8.2C11.1 6.1 11.1 2.7 9.19997 0.599997C8.99998 0.499989 8.69998 0.400005 8.49996 0.599997C8.29994 0.799989 8.29997 1.09999 8.49996 1.3C10.1 3 10.1 5.8 8.49996 7.5C8.29997 7.8 8.29997 8.1 8.49996 8.29999ZM7.29996 9.4C6.99996 9.20001 6.69996 9 6.39996 9.1C5.99995 9.20001 5.79996 9.4 5.59997 9.80001L0.599976 21.7C0.399984 22.3 0.599976 22.6 0.699984 22.7C0.799992 22.8 0.899976 22.9 1.19998 22.9C1.29998 22.9 1.49998 22.9 1.69997 22.8L13.6 17.8C13.9 17.7 14.2 17.4 14.2 17.1C14.2 16.8 14.1 16.4 13.9 16.2L7.29996 9.4ZM3.29995 17.9L5.39995 20L1.69994 21.6L3.29995 17.9ZM6.39996 19.6L3.89995 17.1C3.79994 17 3.79994 17 3.69996 17L6.59995 10.2L13.2 16.8L6.39996 19.6Z" fill="#1E293B"/>
</svg>
