<svg width="24" height="24" viewBox="0 0 24 24" fill="none" xmlns="http://www.w3.org/2000/svg">
<path d="M19.8959 16.936C20.6912 16.936 21.3359 16.2912 21.3359 15.496V13.336C21.3359 12.5408 20.6912 11.896 19.8959 11.896H4.07993C3.2847 11.896 2.63993 12.5408 2.63993 13.336V15.496C2.63993 16.2912 3.2847 16.936 4.07993 16.936H19.8959ZM19.8959 17.896H4.07993C2.75452 17.896 1.67993 16.8214 1.67993 15.496V13.336C1.67993 12.0106 2.75452 10.936 4.07993 10.936H19.8959C21.2213 10.936 22.2959 12.0106 22.2959 13.336V15.496C22.2959 16.8214 21.2213 17.896 19.8959 17.896ZM6.10793 18.8463V20.3146C6.10793 20.8797 5.6558 21.336 5.10017 21.336H4.9557C4.40006 21.336 3.94793 20.8797 3.94793 20.3146V18.84C3.94793 18.5749 3.73303 18.36 3.46793 18.36C3.20283 18.36 2.98793 18.5749 2.98793 18.84V20.3146C2.98793 21.4079 3.86787 22.296 4.9557 22.296H5.10017C6.18797 22.296 7.06793 21.4079 7.06793 20.3146V18.8463C7.06793 18.5812 6.85303 18.3663 6.58793 18.3663C6.32283 18.3663 6.10793 18.5812 6.10793 18.8463ZM20.0279 18.8463V20.3146C20.0279 20.8797 19.5758 21.336 19.0202 21.336H18.8757C18.3201 21.336 17.8679 20.8797 17.8679 20.3146V18.84C17.8679 18.5749 17.653 18.36 17.3879 18.36C17.1228 18.36 16.9079 18.5749 16.9079 18.84V20.3146C16.9079 21.4079 17.7879 22.296 18.8757 22.296H19.0202C20.108 22.296 20.9879 21.4079 20.9879 20.3146V18.8463C20.9879 18.5812 20.773 18.3663 20.5079 18.3663C20.2428 18.3663 20.0279 18.5812 20.0279 18.8463Z" fill="#1E293B"/>
<path d="M7.22398 14.416C7.22398 15.1451 6.6331 15.736 5.90398 15.736C5.17487 15.736 4.58398 15.1451 4.58398 14.416C4.58398 13.6869 5.17487 13.096 5.90398 13.096C6.6331 13.096 7.22398 13.6869 7.22398 14.416ZM19.392 14.416C19.392 15.1451 18.8011 15.736 18.072 15.736C17.3429 15.736 16.752 15.1451 16.752 14.416C16.752 13.6869 17.3429 13.096 18.072 13.096C18.8011 13.096 19.392 13.6869 19.392 14.416ZM9.58798 14.896H14.388C14.6531 14.896 14.868 14.6811 14.868 14.416C14.868 14.1509 14.6531 13.936 14.388 13.936H9.58798C9.32288 13.936 9.10798 14.1509 9.10798 14.416C9.10798 14.6811 9.32288 14.896 9.58798 14.896ZM9.75216 4.65785V3.11993C9.75216 2.85488 9.96711 2.63993 10.2322 2.63993H13.7439C14.0089 2.63993 14.2239 2.85488 14.2239 3.11993V4.65785C14.2239 4.92296 14.4388 5.13785 14.7039 5.13785C14.969 5.13785 15.1839 4.92296 15.1839 4.65785V3.11993C15.1839 2.32467 14.5391 1.67993 13.7439 1.67993H10.2322C9.43691 1.67993 8.79216 2.32467 8.79216 3.11993V4.65785C8.79216 4.92296 9.00706 5.13785 9.27216 5.13785C9.53727 5.13785 9.75216 4.92296 9.75216 4.65785Z" fill="#1E293B"/>
<path d="M18.288 6.91993C18.288 6.12469 17.6433 5.47993 16.848 5.47993H7.12803C6.33279 5.47993 5.68803 6.12469 5.68803 6.91993V10.92H18.288V6.91993ZM4.72803 11.88V6.91993C4.72803 5.59451 5.80261 4.51993 7.12803 4.51993H16.848C18.1734 4.51993 19.248 5.59451 19.248 6.91993V11.88H4.72803Z" fill="#1E293B"/>
</svg>
