<svg width="24" height="24" viewBox="0 0 24 24" fill="none" xmlns="http://www.w3.org/2000/svg">
<g clip-path="url(#clip0_55_57)">
<path d="M11.6034 5.06648C11.8606 5.06648 12.2653 5.25069 12.4343 5.44469L15.9176 9.44488L16.6416 8.81446L13.1582 4.81415C12.8068 4.41081 12.1381 4.10648 11.6034 4.10648H9.87542C9.11703 4.10648 8.71362 4.77859 9.07088 5.44762L11.1207 9.28823L11.9676 8.83621L9.95562 5.06645H11.6034L11.6034 5.06648ZM11.2788 13.8675L10.5077 13.2957L6.73655 18.3813C6.26579 19.0163 6.62288 19.7256 7.41324 19.7256H9.81324C10.3369 19.7256 11.012 19.4451 11.3815 19.0741L16.5134 13.9203L15.8331 13.2429L10.7012 18.3967C10.5119 18.5868 10.0816 18.7656 9.81324 18.7656H7.64672L11.2788 13.8675L11.2788 13.8675Z" fill="#1E293B"/>
<path d="M5.97312 9.5976H20.1091C21.6997 9.5976 22.9891 10.887 22.9891 12.4776C22.9891 12.7427 22.7742 12.9576 22.5091 12.9576H4.79712V13.9176H22.5091C23.3044 13.9176 23.9491 13.2729 23.9491 12.4776C23.9491 10.3568 22.2299 8.6376 20.1091 8.6376H5.97312V9.5976Z" fill="#1E293B"/>
<path d="M5.43306 12.96H4.93602C4.11409 12.96 3.38329 12.4368 3.1183 11.6588L0.97321 5.35738C0.920264 5.20178 1.03609 5.03999 1.20041 5.03999H2.1033C2.19128 5.03999 2.34836 5.13348 2.39041 5.21094L4.19826 8.54321L5.04208 8.08541L3.23415 4.75302C3.02413 4.36616 2.54329 4.07999 2.1033 4.07999H1.20041C0.378296 4.07999 -0.2004 4.8883 0.0643973 5.66666L2.20954 11.9682C2.60701 13.1353 3.70316 13.92 4.93602 13.92H5.43306V12.96Z" fill="#1E293B"/>
<path d="M6.00681 8.63656C5.56194 8.63656 5.16496 8.37484 4.98557 7.97617L4.11011 8.37008C4.44315 9.11026 5.18076 9.59656 6.00679 9.59656V8.63656H6.00681Z" fill="#1E293B"/>
</g>
<defs>
<clipPath id="clip0_55_57">
<rect width="24" height="24" fill="white"/>
</clipPath>
</defs>
</svg>
