<svg width="24" height="24" viewBox="0 0 24 24" fill="none" xmlns="http://www.w3.org/2000/svg">
<g clip-path="url(#clip0_55_63)">
<path d="M7.34082 10.1633V13.7633C7.34082 14.0284 7.55572 14.2433 7.82082 14.2433C8.08592 14.2433 8.30082 14.0284 8.30082 13.7633V10.1633C8.30082 9.89819 8.08592 9.68329 7.82082 9.68329C7.55572 9.68329 7.34082 9.89819 7.34082 10.1633ZM23.0128 14.9366V20.1617C23.0128 20.4268 23.2277 20.6417 23.4928 20.6417C23.7579 20.6417 23.9728 20.4268 23.9728 20.1617V14.9366C23.9728 14.6715 23.7579 14.4566 23.4928 14.4566C23.2277 14.4566 23.0128 14.6715 23.0128 14.9366ZM13.0048 20.1617V14.9847C13.0048 14.7196 12.7899 14.5047 12.5248 14.5047C12.2597 14.5047 12.0448 14.7196 12.0448 14.9847V20.1617C12.0448 20.4268 12.2597 20.6417 12.5248 20.6417C12.7899 20.6417 13.0048 20.4268 13.0048 20.1617ZM13.9408 11.1425H22.3408C22.6059 11.1425 22.8208 10.9276 22.8208 10.6625C22.8208 10.3974 22.6059 10.1825 22.3408 10.1825H13.9408C13.6757 10.1825 13.4608 10.3974 13.4608 10.6625C13.4608 10.9276 13.6757 11.1425 13.9408 11.1425ZM19.2208 8.50249C19.6157 8.50249 19.9408 8.17739 19.9408 7.78249V7.54249C19.9408 7.14759 19.6157 6.82249 19.2208 6.82249H16.8208C16.4259 6.82249 16.1008 7.14759 16.1008 7.54249V7.78249C16.1008 8.17739 16.4259 8.50249 16.8208 8.50249H19.2208ZM19.2208 9.46249H16.8208C15.8957 9.46249 15.1408 8.70759 15.1408 7.78249V7.54249C15.1408 6.61739 15.8957 5.86249 16.8208 5.86249H19.2208C20.1459 5.86249 20.9008 6.61739 20.9008 7.54249V7.78249C20.9008 8.70759 20.1459 9.46249 19.2208 9.46249Z" fill="#1E293B"/>
<path d="M12.6414 19.2017H23.0802C23.3453 19.2017 23.5602 18.9868 23.5602 18.7217C23.5602 18.4566 23.3453 18.2417 23.0802 18.2417H12.6414C12.3763 18.2417 12.1614 18.4566 12.1614 18.7217C12.1614 18.9868 12.3763 19.2017 12.6414 19.2017ZM4.67603 10.0433V19.9793C4.67603 20.2444 4.89092 20.4593 5.15603 20.4593C5.42113 20.4593 5.63603 20.2444 5.63603 19.9793V10.0433C5.63603 9.77819 5.42113 9.56329 5.15603 9.56329C4.89092 9.56329 4.67603 9.77819 4.67603 10.0433Z" fill="#1E293B"/>
<path d="M9.35605 19.6673V20.6273H0.956048V19.6673H9.35605ZM9.35605 20.6273H0.956048C0.31604 20.6273 0.31604 19.6673 0.956048 19.6673H9.35605C9.99606 19.6673 9.99606 20.6273 9.35605 20.6273ZM8.18354 4.41412C8.17477 4.37542 8.10547 4.32008 8.0656 4.32008H2.24656C2.2067 4.32008 2.13739 4.37542 2.12863 4.41416L0.986517 9.45465H9.32565L8.18354 4.41412ZM10.2886 9.36034C10.415 9.91815 10.0185 10.4147 9.44656 10.4147H0.865603C0.293681 10.4147 -0.102764 9.91815 0.0235403 9.36034L1.19232 4.20208C1.30018 3.72585 1.75829 3.36011 2.24654 3.36011H8.06558C8.55383 3.36011 9.01196 3.72585 9.1198 4.20203L10.2886 9.36034H10.2886ZM20.721 8.11307H21.2099C21.3183 8.11307 21.4271 8.14403 21.508 8.19458C21.5632 8.22906 21.5874 8.25944 21.5886 8.2653L22.9979 14.8557C23.0017 14.8733 13.0309 14.8796 13.0309 14.8796C13.0271 14.8796 14.4351 8.2653 14.4351 8.2653C14.4363 8.25951 14.4605 8.22913 14.5158 8.19463C14.5968 8.14405 14.7056 8.11309 14.8139 8.11309H15.291V7.15309H14.8139C14.2 7.15309 13.6128 7.51977 13.4963 8.06453L12.0871 14.6549C11.9573 15.2636 12.4092 15.8396 13.0309 15.8396H22.9929C23.6147 15.8396 24.0669 15.2634 23.9367 14.6549L22.5274 8.06455C22.4109 7.51975 21.8239 7.15309 21.2099 7.15309H20.721V8.11309L20.721 8.11307Z" fill="#1E293B"/>
</g>
<defs>
<clipPath id="clip0_55_63">
<rect width="24" height="24" fill="white"/>
</clipPath>
</defs>
</svg>
