<svg width="24" height="24" viewBox="0 0 24 24" fill="none" xmlns="http://www.w3.org/2000/svg">
<g clip-path="url(#clip0_18_354)">
<path d="M16.5999 17.4511H7.75977V18.4111H16.5999V17.4511Z" fill="#1E293B"/>
<path d="M3.04823 17.52H1.68239C1.28616 17.52 0.96 17.194 0.96 16.7983V4.80165C0.96 4.40591 1.28618 4.07996 1.68239 4.07996H22.3176C22.714 4.07996 23.04 4.40582 23.04 4.80165V16.7983C23.04 17.1941 22.714 17.52 22.3176 17.52H21.4843V18.48H22.3176C23.244 18.48 24 17.7245 24 16.7983V4.80165C24 3.8755 23.244 3.11996 22.3176 3.11996H1.68239C0.756117 3.11996 0 3.87557 0 4.80165V16.7983C0 17.7244 0.756117 18.48 1.68239 18.48H3.04823V17.52Z" fill="#1E293B"/>
<path d="M7.37836 17.9683C7.37836 16.9197 6.52828 16.0696 5.47971 16.0696C4.43135 16.0696 3.58132 16.9198 3.58132 17.9683C3.58132 19.0168 4.43135 19.8669 5.47971 19.8669C6.52828 19.8669 7.37836 19.0168 7.37836 17.9683ZM8.33836 17.9683C8.33836 19.547 7.05851 20.8269 5.47971 20.8269C3.90113 20.8269 2.62132 19.5469 2.62132 17.9683C2.62132 16.3896 3.90113 15.1096 5.47971 15.1096C7.05849 15.1096 8.33836 16.3896 8.33836 17.9683ZM20.8852 17.9683C20.8852 16.9197 20.0351 16.0696 18.9865 16.0696C17.9382 16.0696 17.0881 16.9198 17.0881 17.9683C17.0881 19.0168 17.9382 19.8669 18.9865 19.8669C20.0351 19.8669 20.8852 19.0168 20.8852 17.9683ZM21.8452 17.9683C21.8452 19.547 20.5653 20.8269 18.9865 20.8269C17.4079 20.8269 16.1281 19.5469 16.1281 17.9683C16.1281 16.3896 17.4079 15.1096 18.9865 15.1096C20.5653 15.1096 21.8452 16.3896 21.8452 17.9683ZM23.3201 11.1151H17.808C17.7765 11.1151 17.7453 11.1089 17.7162 11.0968C17.6871 11.0848 17.6606 11.0671 17.6383 11.0448C17.616 11.0225 17.5984 10.9961 17.5863 10.9669C17.5742 10.9378 17.568 10.9066 17.568 10.8751V3.83997H16.608V10.8751C16.608 11.5378 17.1453 12.0751 17.808 12.0751H23.3201V11.1151ZM14.4541 11.1191C14.5867 11.1191 14.6941 11.0117 14.6941 10.8791V6.24709C14.6941 6.11451 14.5867 6.00709 14.4541 6.00709H3.13188C3.10037 6.00708 3.06915 6.01329 3.04003 6.02535C3.01091 6.03741 2.98445 6.05508 2.96217 6.07737C2.93988 6.09966 2.9222 6.12612 2.91014 6.15524C2.89808 6.18436 2.89188 6.21557 2.89188 6.24709V10.8791C2.89188 11.0117 2.9993 11.1191 3.13188 11.1191H14.4541ZM14.4541 12.0791H3.13188C2.46912 12.0791 1.93188 11.5419 1.93188 10.8791V6.24709C1.93188 5.58433 2.46912 5.04709 3.13188 5.04709H14.4541C15.1169 5.04709 15.6541 5.58433 15.6541 6.24709V10.8791C15.6541 11.5419 15.1169 12.0791 14.4541 12.0791Z" fill="#1E293B"/>
<path d="M8.31299 5.81509V11.4376H9.27299V5.81509H8.31299Z" fill="#1E293B"/>
</g>
<defs>
<clipPath id="clip0_18_354">
<rect width="24" height="24" fill="white"/>
</clipPath>
</defs>
</svg>
