<svg width="120" height="120" viewBox="0 0 120 120" fill="none" xmlns="http://www.w3.org/2000/svg">
<circle cx="60" cy="60" r="60" fill="white"/>
<path d="M79.8775 79.4737H80.9321L77.2427 70.5304C76.9388 69.7941 77.2895 68.951 78.026 68.6472C78.7621 68.3433 79.6054 68.6941 79.9092 69.4305L84.4205 80.3661C84.6041 80.8109 84.5535 81.3183 84.2859 81.7183C84.0183 82.1182 83.5686 82.3583 83.0874 82.3583L79.8776 82.3581C79.081 82.3581 78.4354 81.7123 78.4354 80.9159C78.4354 80.1195 79.0809 79.4737 79.8775 79.4737ZM67.2637 79.4737H64.9497C64.1533 79.4737 63.5075 80.1193 63.5075 80.9159C63.5075 81.7125 64.1531 82.3581 64.9497 82.3581L68.1597 82.3583C68.7083 82.3583 69.2094 82.0469 69.4525 81.5551L77.491 65.2911C77.5893 65.0924 77.6404 64.8738 77.6404 64.652V51.483C77.6404 50.6864 76.9948 50.0408 76.1982 50.0408H72.9927C72.4916 50.0408 72.0266 50.3009 71.7641 50.7278L64.7818 62.0855L62.689 62.0852C61.8925 62.0852 61.2467 62.7308 61.2467 63.5272C61.2467 64.3237 61.8922 64.9695 62.6888 64.9696L65.588 64.97C66.0891 64.97 66.5543 64.7099 66.8166 64.283L73.7989 52.9252H74.7559V64.315L67.2637 79.4737ZM70.8677 40.499C70.8677 37.4261 72.8339 34.7352 75.7604 33.8029C76.0451 33.7122 76.351 33.7122 76.636 33.8029C79.5623 34.735 81.5285 37.4261 81.5285 40.499C81.5285 43.5719 79.5624 46.2629 76.6361 47.1953C76.4937 47.2406 76.3459 47.2634 76.1983 47.2634C76.0507 47.2634 75.9028 47.2406 75.7605 47.1953C72.8339 46.2628 70.8677 43.5719 70.8677 40.499ZM73.7522 40.499C73.7522 42.1529 74.7176 43.619 76.1982 44.28C77.6784 43.619 78.644 42.1527 78.644 40.499C78.644 38.8451 77.6785 37.379 76.1982 36.7179C74.7178 37.3791 73.7522 38.8452 73.7522 40.499ZM41.7186 69.9828C43.7384 69.9828 45.6875 69.4716 47.4109 68.5114V79.4854C46.701 79.5756 46.1523 80.1816 46.1523 80.9161C46.1523 81.7127 46.798 82.3583 47.5946 82.3583H50.1124C50.909 82.3583 51.5546 81.7127 51.5546 80.9161C51.5546 80.1816 51.0056 79.5753 50.2956 79.4854V68.5114C52.0192 69.4716 53.9683 69.983 55.9884 69.983C57.5775 69.983 59.1201 69.6697 60.5729 69.0518C61.3059 68.7401 61.6473 67.8932 61.3357 67.1601C61.0238 66.4271 60.1771 66.0854 59.4439 66.3973C58.3501 66.8625 57.1875 67.0984 55.9884 67.0984C53.8869 67.0984 51.8873 66.3643 50.2956 65.0198V49.3459C50.2956 48.5494 49.6499 47.9037 48.8533 47.9037C48.0567 47.9037 47.4111 48.5494 47.4111 49.3459V65.0201C45.8193 66.3644 43.8199 67.0984 41.7188 67.0984C36.8474 67.0984 32.8845 63.1354 32.8845 58.2644C32.8845 54.9753 34.6941 51.9787 37.6076 50.4438C38.2193 50.1215 38.5162 49.4105 38.3154 48.7489C38.151 48.2071 38.0675 47.6425 38.0675 47.0706C38.0675 44.518 39.7053 42.2994 42.1428 41.5499C42.6721 41.3871 43.0613 40.9358 43.1447 40.3884C43.5698 37.5969 46.024 35.4919 48.8533 35.4919C51.6828 35.4919 54.137 37.5969 54.5621 40.3884C54.6455 40.9358 55.0349 41.3871 55.564 41.5499C58.0015 42.2994 59.6393 44.518 59.6393 47.0706C59.6393 47.6422 59.5558 48.2069 59.3914 48.7492C59.1907 49.4107 59.4877 50.1215 60.0992 50.4438C61.4837 51.1733 62.6547 52.2613 63.4857 53.5903C63.908 54.2656 64.7978 54.471 65.4731 54.0484C66.1484 53.6262 66.3537 52.7363 65.9313 52.061C65.0297 50.6191 63.8258 49.3913 62.4117 48.4628C62.4861 48.004 62.5236 47.5385 62.5236 47.0706C62.5236 43.5391 60.4322 40.4336 57.2365 39.0919C56.7989 37.4041 55.8544 35.8754 54.5222 34.7208C52.9497 33.358 50.9365 32.6074 48.8533 32.6074C46.7701 32.6074 44.7569 33.358 43.1844 34.7208C41.8521 35.8754 40.9078 37.4041 40.4701 39.0919C37.2745 40.4338 35.1831 43.5391 35.1831 47.0706C35.1831 47.5385 35.2204 48.0036 35.2947 48.462C32.0029 50.617 30 54.2789 30 58.2644C30 64.7259 35.2569 69.9828 41.7186 69.9828ZM89.722 61.3626L81.8753 50.6316C81.4051 49.9887 80.5026 49.8486 79.8598 50.3187C79.2168 50.7888 79.0767 51.6912 79.5469 52.3341L87.1155 62.6848V65.1387C87.1155 65.9353 87.7612 66.5809 88.5578 66.5809C89.3544 66.5809 90 65.9353 90 65.1387V62.2139C90 61.9078 89.9027 61.6097 89.722 61.3626ZM88.44 84.5082H31.5605C30.7639 84.5082 30.1183 85.1538 30.1183 85.9504C30.1183 86.747 30.7639 87.3926 31.5605 87.3926H88.4398C89.2364 87.3926 89.8821 86.747 89.8821 85.9504C89.8821 85.1538 89.2364 84.5082 88.44 84.5082Z" fill="black"/>
</svg>
