<svg width="163" height="38" viewBox="0 0 163 38" fill="none" xmlns="http://www.w3.org/2000/svg">
<path d="M20.0566 32H18.8965L17.0332 29.416C16.5762 29.8262 16.0898 30.2129 15.5742 30.5762C15.0703 30.9277 14.5371 31.2383 13.9746 31.5078C13.4121 31.7656 12.832 31.9707 12.2344 32.123C11.6484 32.2754 11.0508 32.3516 10.4414 32.3516C9.11719 32.3516 7.86914 32.1289 6.69727 31.6836C5.53711 31.2383 4.51758 30.5938 3.63867 29.75C2.77148 28.8945 2.08594 27.8516 1.58203 26.6211C1.07812 25.3906 0.826172 23.9902 0.826172 22.4199C0.826172 20.9551 1.07812 19.6133 1.58203 18.3945C2.08594 17.1641 2.77148 16.1094 3.63867 15.2305C4.51758 14.3516 5.53711 13.6719 6.69727 13.1914C7.86914 12.6992 9.11719 12.4531 10.4414 12.4531C11.0508 12.4531 11.6543 12.5293 12.252 12.6816C12.8496 12.834 13.4297 13.0449 13.9922 13.3145C14.5547 13.584 15.0879 13.9004 15.5918 14.2637C16.1074 14.627 16.5879 15.0195 17.0332 15.4414L18.8965 13.209H20.0566V32ZM15.2227 22.4199C15.2227 21.7637 15.0938 21.1309 14.8359 20.5215C14.5898 19.9004 14.25 19.3555 13.8164 18.8867C13.3828 18.4062 12.873 18.0254 12.2871 17.7441C11.7129 17.4512 11.0977 17.3047 10.4414 17.3047C9.78516 17.3047 9.16406 17.416 8.57812 17.6387C8.00391 17.8613 7.5 18.1895 7.06641 18.623C6.64453 19.0566 6.31055 19.5957 6.06445 20.2402C5.81836 20.873 5.69531 21.5996 5.69531 22.4199C5.69531 23.2402 5.81836 23.9727 6.06445 24.6172C6.31055 25.25 6.64453 25.7832 7.06641 26.2168C7.5 26.6504 8.00391 26.9785 8.57812 27.2012C9.16406 27.4238 9.78516 27.5352 10.4414 27.5352C11.0977 27.5352 11.7129 27.3945 12.2871 27.1133C12.873 26.8203 13.3828 26.4395 13.8164 25.9707C14.25 25.4902 14.5898 24.9453 14.8359 24.3359C15.0938 23.7148 15.2227 23.0762 15.2227 22.4199ZM28.9226 8.05859C28.9226 8.50391 28.8347 8.91992 28.659 9.30664C28.4949 9.69336 28.2664 10.0332 27.9734 10.3262C27.6804 10.6074 27.3347 10.8359 26.9363 11.0117C26.5496 11.1758 26.1336 11.2578 25.6882 11.2578C25.2429 11.2578 24.8211 11.1758 24.4226 11.0117C24.0359 10.8359 23.6961 10.6074 23.4031 10.3262C23.1218 10.0332 22.8933 9.69336 22.7175 9.30664C22.5535 8.91992 22.4715 8.50391 22.4715 8.05859C22.4715 7.625 22.5535 7.21484 22.7175 6.82812C22.8933 6.42969 23.1218 6.08984 23.4031 5.80859C23.6961 5.51562 24.0359 5.28711 24.4226 5.12305C24.8211 4.94727 25.2429 4.85938 25.6882 4.85938C26.1336 4.85938 26.5496 4.94727 26.9363 5.12305C27.3347 5.28711 27.6804 5.51562 27.9734 5.80859C28.2664 6.08984 28.4949 6.42969 28.659 6.82812C28.8347 7.21484 28.9226 7.625 28.9226 8.05859ZM28.0965 32H23.2625V13.1738H28.0965V32ZM36.9624 8.05859C36.9624 8.50391 36.8745 8.91992 36.6988 9.30664C36.5347 9.69336 36.3062 10.0332 36.0132 10.3262C35.7202 10.6074 35.3745 10.8359 34.9761 11.0117C34.5894 11.1758 34.1734 11.2578 33.7281 11.2578C33.2827 11.2578 32.8609 11.1758 32.4624 11.0117C32.0757 10.8359 31.7359 10.6074 31.4429 10.3262C31.1617 10.0332 30.9331 9.69336 30.7574 9.30664C30.5933 8.91992 30.5113 8.50391 30.5113 8.05859C30.5113 7.625 30.5933 7.21484 30.7574 6.82812C30.9331 6.42969 31.1617 6.08984 31.4429 5.80859C31.7359 5.51562 32.0757 5.28711 32.4624 5.12305C32.8609 4.94727 33.2827 4.85938 33.7281 4.85938C34.1734 4.85938 34.5894 4.94727 34.9761 5.12305C35.3745 5.28711 35.7202 5.51562 36.0132 5.80859C36.3062 6.08984 36.5347 6.42969 36.6988 6.82812C36.8745 7.21484 36.9624 7.625 36.9624 8.05859ZM36.1363 32H31.3023V13.1738H36.1363V32ZM57.5355 22.4199C57.5355 23.8262 57.2835 25.1387 56.7796 26.3574C56.2757 27.5645 55.5901 28.6133 54.723 29.5039C53.8558 30.3828 52.8362 31.0801 51.6644 31.5957C50.5042 32.0996 49.2562 32.3516 47.9202 32.3516C46.596 32.3516 45.348 32.0996 44.1761 31.5957C43.0159 31.0801 41.9964 30.3828 41.1175 29.5039C40.2503 28.6133 39.5648 27.5645 39.0608 26.3574C38.5569 25.1387 38.305 23.8262 38.305 22.4199C38.305 20.9902 38.5569 19.666 39.0608 18.4473C39.5648 17.2285 40.2503 16.1797 41.1175 15.3008C41.9964 14.4102 43.0159 13.7129 44.1761 13.209C45.348 12.7051 46.596 12.4531 47.9202 12.4531C49.2562 12.4531 50.5042 12.6934 51.6644 13.1738C52.8362 13.6426 53.8558 14.3164 54.723 15.1953C55.5901 16.0625 56.2757 17.1113 56.7796 18.3418C57.2835 19.5605 57.5355 20.9199 57.5355 22.4199ZM52.7015 22.4199C52.7015 21.6465 52.5726 20.9492 52.3148 20.3281C52.0687 19.6953 51.7288 19.1562 51.2952 18.7109C50.8616 18.2539 50.3519 17.9082 49.7659 17.6738C49.1917 17.4277 48.5765 17.3047 47.9202 17.3047C47.264 17.3047 46.6429 17.4277 46.0569 17.6738C45.4827 17.9082 44.9788 18.2539 44.5452 18.7109C44.1233 19.1562 43.7894 19.6953 43.5433 20.3281C43.2972 20.9492 43.1741 21.6465 43.1741 22.4199C43.1741 23.1465 43.2972 23.8203 43.5433 24.4414C43.7894 25.0625 44.1233 25.6016 44.5452 26.0586C44.9788 26.5156 45.4827 26.8789 46.0569 27.1484C46.6429 27.4062 47.264 27.5352 47.9202 27.5352C48.5765 27.5352 49.1917 27.4121 49.7659 27.166C50.3519 26.9199 50.8616 26.5742 51.2952 26.1289C51.7288 25.6836 52.0687 25.1445 52.3148 24.5117C52.5726 23.8789 52.7015 23.1816 52.7015 22.4199ZM65.628 30.207C65.628 30.6289 65.5518 31.0273 65.3995 31.4023C65.2471 31.7656 65.0362 32.082 64.7667 32.3516C64.4971 32.6211 64.1807 32.832 63.8175 32.9844C63.4542 33.1484 63.0616 33.2305 62.6397 33.2305C62.2296 33.2305 61.837 33.1484 61.462 32.9844C61.0987 32.832 60.7764 32.6211 60.4952 32.3516C60.2257 32.082 60.0089 31.7656 59.8448 31.4023C59.6925 31.0273 59.6163 30.6289 59.6163 30.207C59.6163 29.7969 59.6925 29.4102 59.8448 29.0469C60.0089 28.6836 60.2257 28.3672 60.4952 28.0977C60.7764 27.8281 61.0987 27.6172 61.462 27.4648C61.837 27.3008 62.2296 27.2188 62.6397 27.2188C63.0616 27.2188 63.4542 27.3008 63.8175 27.4648C64.1807 27.6172 64.4971 27.8281 64.7667 28.0977C65.0362 28.3672 65.2471 28.6836 65.3995 29.0469C65.5518 29.4102 65.628 29.7969 65.628 30.207Z" fill="#1E293B"/>
<path d="M77.4471 32C76.287 32 75.1971 31.7832 74.1776 31.3496C73.1581 30.9043 72.2616 30.3008 71.4881 29.5391C70.7264 28.7656 70.1229 27.8691 69.6776 26.8496C69.244 25.8301 69.0272 24.7402 69.0272 23.5801V17.9902H66.6893V13.209H69.0272V5.68555H73.8084V13.209H81.0858V17.9902H73.8084V23.5801C73.8084 24.084 73.9022 24.5586 74.0897 25.0039C74.2772 25.4375 74.535 25.8184 74.8631 26.1465C75.1913 26.4746 75.578 26.7383 76.0233 26.9375C76.4686 27.125 76.9432 27.2188 77.4471 27.2188H81.0858V32H77.4471ZM88.1236 32H83.3248V13.1738H84.485L86.067 15.4062C86.8404 14.7031 87.7193 14.1641 88.7037 13.7891C89.6881 13.4023 90.7076 13.209 91.7623 13.209H95.9986V17.9902H91.7623C91.2584 17.9902 90.7838 18.084 90.3385 18.2715C89.8932 18.459 89.5065 18.7168 89.1783 19.0449C88.8502 19.373 88.5924 19.7598 88.4049 20.2051C88.2174 20.6504 88.1236 21.125 88.1236 21.6289V32ZM115.64 32H114.48L112.617 29.416C112.16 29.8262 111.673 30.2129 111.158 30.5762C110.654 30.9277 110.12 31.2383 109.558 31.5078C108.995 31.7656 108.415 31.9707 107.818 32.123C107.232 32.2754 106.634 32.3516 106.025 32.3516C104.701 32.3516 103.453 32.1289 102.281 31.6836C101.12 31.2383 100.101 30.5938 99.222 29.75C98.3549 28.8945 97.6693 27.8516 97.1654 26.6211C96.6615 25.3906 96.4095 23.9902 96.4095 22.4199C96.4095 20.9551 96.6615 19.6133 97.1654 18.3945C97.6693 17.1641 98.3549 16.1094 99.222 15.2305C100.101 14.3516 101.12 13.6719 102.281 13.1914C103.453 12.6992 104.701 12.4531 106.025 12.4531C106.634 12.4531 107.238 12.5293 107.835 12.6816C108.433 12.834 109.013 13.0449 109.576 13.3145C110.138 13.584 110.671 13.9004 111.175 14.2637C111.691 14.627 112.171 15.0195 112.617 15.4414L114.48 13.209H115.64V32ZM110.806 22.4199C110.806 21.7637 110.677 21.1309 110.419 20.5215C110.173 19.9004 109.833 19.3555 109.4 18.8867C108.966 18.4062 108.456 18.0254 107.87 17.7441C107.296 17.4512 106.681 17.3047 106.025 17.3047C105.369 17.3047 104.747 17.416 104.161 17.6387C103.587 17.8613 103.083 18.1895 102.65 18.623C102.228 19.0566 101.894 19.5957 101.648 20.2402C101.402 20.873 101.279 21.5996 101.279 22.4199C101.279 23.2402 101.402 23.9727 101.648 24.6172C101.894 25.25 102.228 25.7832 102.65 26.2168C103.083 26.6504 103.587 26.9785 104.161 27.2012C104.747 27.4238 105.369 27.5352 106.025 27.5352C106.681 27.5352 107.296 27.3945 107.87 27.1133C108.456 26.8203 108.966 26.4395 109.4 25.9707C109.833 25.4902 110.173 24.9453 110.419 24.3359C110.677 23.7148 110.806 23.0762 110.806 22.4199ZM124.19 32L117.018 13.1738H122.485L126.598 24.916L130.693 13.1738H136.178L129.006 32H124.19ZM144.464 27.3945C144.651 27.4531 144.839 27.4941 145.026 27.5176C145.214 27.5293 145.401 27.5352 145.589 27.5352C146.058 27.5352 146.509 27.4707 146.942 27.3418C147.376 27.2129 147.78 27.0312 148.155 26.7969C148.542 26.5508 148.882 26.2578 149.175 25.918C149.479 25.5664 149.725 25.1797 149.913 24.7578L153.429 28.291C152.983 28.9238 152.468 29.4922 151.882 29.9961C151.308 30.5 150.681 30.9277 150.001 31.2793C149.333 31.6309 148.624 31.8945 147.874 32.0703C147.136 32.2578 146.374 32.3516 145.589 32.3516C144.265 32.3516 143.017 32.1055 141.845 31.6133C140.684 31.1211 139.665 30.4355 138.786 29.5566C137.919 28.6777 137.233 27.6348 136.729 26.4277C136.225 25.209 135.974 23.873 135.974 22.4199C135.974 20.9316 136.225 19.5723 136.729 18.3418C137.233 17.1113 137.919 16.0625 138.786 15.1953C139.665 14.3281 140.684 13.6543 141.845 13.1738C143.017 12.6934 144.265 12.4531 145.589 12.4531C146.374 12.4531 147.142 12.5469 147.892 12.7344C148.642 12.9219 149.35 13.1914 150.018 13.543C150.698 13.8945 151.331 14.3281 151.917 14.8438C152.503 15.3477 153.018 15.916 153.464 16.5488L144.464 27.3945ZM146.925 17.498C146.702 17.416 146.479 17.3633 146.257 17.3398C146.046 17.3164 145.823 17.3047 145.589 17.3047C144.933 17.3047 144.311 17.4277 143.725 17.6738C143.151 17.9082 142.647 18.248 142.214 18.6934C141.792 19.1387 141.458 19.6777 141.212 20.3105C140.966 20.9316 140.843 21.6348 140.843 22.4199C140.843 22.5957 140.849 22.7949 140.86 23.0176C140.884 23.2402 140.913 23.4688 140.948 23.7031C140.995 23.9258 141.048 24.1426 141.106 24.3535C141.165 24.5645 141.241 24.752 141.335 24.916L146.925 17.498ZM160.256 32H155.422V5.68555H160.256V32Z" fill="#39CDEE"/>
</svg>
