<svg width="120" height="120" viewBox="0 0 120 120" fill="none" xmlns="http://www.w3.org/2000/svg">
<circle cx="60" cy="60" r="60" fill="white"/>
<g clip-path="url(#clip0_229_119)">
<path d="M78.782 54.3618C78.2926 54.3618 76.7195 54.3524 75.0132 54.3412L75.0188 50.5931C75.0188 48.5231 73.3407 46.8431 71.2688 46.8431L33.7407 46.8337C31.6688 46.8337 29.9907 48.5137 29.9907 50.5837V78.7649C29.9907 84.9787 35.0288 90.0149 41.2407 90.0149H63.7782C69.992 90.0149 74.9701 84.9787 74.9701 78.7649L74.9738 76.8412C76.6745 76.8543 78.407 76.8637 78.782 76.8637C84.9789 76.8637 90.0057 71.8818 90.0057 65.6681C90.0057 59.4543 84.9789 54.3637 78.7801 54.3637L78.782 54.3618ZM71.222 78.7649C71.222 82.9012 67.9182 86.2649 63.7801 86.2649H41.2407C37.1045 86.2649 33.7407 82.9012 33.7407 78.7649L33.7351 50.5837L71.2688 50.5949L71.222 78.7649ZM78.782 73.1681C78.4107 73.1681 76.6782 73.1568 74.9813 73.1456L75.0076 58.0987C76.7138 58.1118 78.2926 58.1193 78.7801 58.1193C83.0645 58.1193 86.3176 61.3143 86.3176 65.6099C86.3176 69.9056 83.0663 73.1681 78.782 73.1681ZM63.7426 43.1118C64.7776 43.1118 65.6176 42.2718 65.6176 41.2368V31.8618C65.6176 30.8268 64.7776 29.9868 63.7426 29.9868C62.7076 29.9868 61.8676 30.8268 61.8676 31.8618V41.2368C61.8676 42.2737 62.7076 43.1118 63.7426 43.1118ZM41.2426 43.1118C42.2776 43.1118 43.1176 42.2718 43.1176 41.2368V31.8618C43.1176 30.8268 42.2776 29.9868 41.2426 29.9868C40.2076 29.9868 39.3676 30.8268 39.3676 31.8618V41.2368C39.3676 42.2737 40.2076 43.1118 41.2426 43.1118ZM52.4926 43.1118C53.5276 43.1118 54.3676 42.2718 54.3676 41.2368V31.8618C54.3676 30.8268 53.5276 29.9868 52.4926 29.9868C51.4576 29.9868 50.6176 30.8268 50.6176 31.8618V41.2368C50.6176 42.2737 51.4576 43.1118 52.4926 43.1118Z" fill="black"/>
</g>
<defs>
<clipPath id="clip0_229_119">
<rect width="60" height="60" fill="white" transform="translate(30 30)"/>
</clipPath>
</defs>
</svg>
