<svg width="120" height="120" viewBox="0 0 120 120" fill="none" xmlns="http://www.w3.org/2000/svg">
<circle cx="60" cy="60" r="60" fill="white"/>
<path fill-rule="evenodd" clip-rule="evenodd" d="M33.75 73.125C33.75 58.6275 45.5025 46.875 60 46.875C74.4975 46.875 86.25 58.6275 86.25 73.125H33.75ZM61.875 43.125V39.375H65.625C66.6619 39.375 67.5 38.5369 67.5 37.5C67.5 36.465 66.6619 35.625 65.625 35.625H54.375C53.3381 35.625 52.5 36.465 52.5 37.5C52.5 38.5369 53.3381 39.375 54.375 39.375H58.125C58.125 39.375 58.1119 43.2788 58.125 43.125C42.435 44.0981 30 57.1894 30 73.125V75C30 76.0369 30.8381 76.875 31.875 76.875H88.125C89.1619 76.875 90 76.0369 90 75V73.125C90 57.1894 77.565 44.0981 61.875 43.125ZM88.125 80.625H31.875C30.8381 80.625 30 81.465 30 82.5C30 83.5369 30.8381 84.375 31.875 84.375H88.125C89.1619 84.375 90 83.5369 90 82.5C90 81.465 89.1619 80.625 88.125 80.625Z" fill="black"/>
</svg>
