<?xml version="1.0" encoding="iso-8859-1"?>
<!-- Uploaded to: SVG Repo, www.svgrepo.com, Generator: SVG Repo Mixer Tools -->
<svg fill="#000000" height="800px" width="800px" version="1.1" id="Layer_1" xmlns="http://www.w3.org/2000/svg" xmlns:xlink="http://www.w3.org/1999/xlink" 
	 viewBox="0 0 512 512" xml:space="preserve">
<g>
	<g>
		<path d="M149.847,330.778c-11.688,9.704-21.79,10.835-36.185,12.434c-18.916,2.101-42.456,4.718-67.23,29.493
			c-24.776,24.776-27.391,48.316-29.493,67.23c-1.82,16.374-3.021,27.192-16.938,41.11L30.954,512
			c24.776-24.776,27.391-48.316,29.493-67.23c1.82-16.375,3.021-27.192,16.938-41.11c13.918-13.918,24.735-15.119,41.11-16.938
			c17.534-1.948,39.043-4.351,61.824-24.424L512,308.8V0H203.2L149.847,330.778z M233.591,309.365L355.976,186.98l88.39,88.388
			L233.591,309.365z M468.224,237.318l-81.294-81.294l81.294-81.294V237.318z M437.27,43.776l-81.294,81.294l-81.294-81.294H437.27z
			 M325.023,156.024L202.638,278.409l33.995-210.775L325.023,156.024z"/>
	</g>
</g>
</svg>