<svg width="140" height="39" viewBox="0 0 140 39" fill="none" xmlns="http://www.w3.org/2000/svg">
<path d="M23.8828 28.168C22.5807 29.2747 21.1289 30.1276 19.5273 30.7266C17.9258 31.3125 16.2591 31.6055 14.5273 31.6055C13.1992 31.6055 11.9167 31.4297 10.6797 31.0781C9.45573 30.7396 8.3099 30.2578 7.24219 29.6328C6.17448 28.9948 5.19792 28.2396 4.3125 27.3672C3.42708 26.4818 2.67188 25.5052 2.04688 24.4375C1.42188 23.3568 0.933594 22.1979 0.582031 20.9609C0.24349 19.724 0.0742188 18.4414 0.0742188 17.1133C0.0742188 15.7852 0.24349 14.5091 0.582031 13.2852C0.933594 12.0612 1.42188 10.9154 2.04688 9.84766C2.67188 8.76693 3.42708 7.79036 4.3125 6.91797C5.19792 6.03255 6.17448 5.27734 7.24219 4.65234C8.3099 4.02734 9.45573 3.54557 10.6797 3.20703C11.9167 2.85547 13.1992 2.67969 14.5273 2.67969C16.2591 2.67969 17.9258 2.97917 19.5273 3.57812C21.1289 4.16406 22.5807 5.01042 23.8828 6.11719L20.9531 11C20.1068 10.1406 19.1302 9.47005 18.0234 8.98828C16.9167 8.49349 15.7513 8.24609 14.5273 8.24609C13.3034 8.24609 12.151 8.48047 11.0703 8.94922C10.0026 9.41797 9.0651 10.056 8.25781 10.8633C7.45052 11.6576 6.8125 12.5951 6.34375 13.6758C5.875 14.7435 5.64062 15.8893 5.64062 17.1133C5.64062 18.3503 5.875 19.5091 6.34375 20.5898C6.8125 21.6706 7.45052 22.6146 8.25781 23.4219C9.0651 24.2292 10.0026 24.8672 11.0703 25.3359C12.151 25.8047 13.3034 26.0391 14.5273 26.0391C15.2305 26.0391 15.9141 25.9544 16.5781 25.7852C17.2422 25.6159 17.8737 25.3815 18.4727 25.082V17.1133H23.8828V28.168ZM39.8331 25.8828C40.0415 25.9479 40.2498 25.9935 40.4581 26.0195C40.6665 26.0326 40.8748 26.0391 41.0831 26.0391C41.604 26.0391 42.1053 25.9674 42.587 25.8242C43.0688 25.681 43.518 25.4792 43.9347 25.2188C44.3644 24.9453 44.742 24.6198 45.0675 24.2422C45.406 23.8516 45.6795 23.4219 45.8878 22.9531L49.7941 26.8789C49.2993 27.582 48.7264 28.2135 48.0753 28.7734C47.4373 29.3333 46.7407 29.8086 45.9855 30.1992C45.2433 30.5898 44.4555 30.8828 43.6222 31.0781C42.8019 31.2865 41.9555 31.3906 41.0831 31.3906C39.6118 31.3906 38.2251 31.1172 36.923 30.5703C35.6339 30.0234 34.5011 29.2617 33.5245 28.2852C32.561 27.3086 31.7993 26.1497 31.2394 24.8086C30.6795 23.4544 30.3995 21.9701 30.3995 20.3555C30.3995 18.7018 30.6795 17.1914 31.2394 15.8242C31.7993 14.457 32.561 13.2917 33.5245 12.3281C34.5011 11.3646 35.6339 10.6159 36.923 10.082C38.2251 9.54818 39.6118 9.28125 41.0831 9.28125C41.9555 9.28125 42.8084 9.38542 43.6417 9.59375C44.4751 9.80208 45.2628 10.1016 46.005 10.4922C46.7602 10.8828 47.4633 11.3646 48.1144 11.9375C48.7654 12.4974 49.3383 13.1289 49.8331 13.832L39.8331 25.8828ZM42.5675 14.8867C42.3201 14.7956 42.0727 14.737 41.8253 14.7109C41.5909 14.6849 41.3435 14.6719 41.0831 14.6719C40.354 14.6719 39.6639 14.8086 39.0128 15.082C38.3748 15.3424 37.8149 15.7201 37.3331 16.2148C36.8644 16.7096 36.4933 17.3086 36.2198 18.0117C35.9464 18.7018 35.8097 19.4831 35.8097 20.3555C35.8097 20.5508 35.8162 20.7721 35.8292 21.0195C35.8553 21.2669 35.8878 21.5208 35.9269 21.7812C35.979 22.0286 36.0376 22.2695 36.1027 22.5039C36.1678 22.7383 36.2524 22.9466 36.3566 23.1289L42.5675 14.8867ZM72.7366 31H55.2952L64.1037 15.4336H55.2952V10.1211H72.7366L63.928 25.6875H72.7366V31ZM94.1556 20.3555C94.1556 19.6263 94.0124 18.9232 93.7259 18.2461C93.4525 17.556 93.0749 16.9505 92.5931 16.4297C92.1114 15.8958 91.5449 15.4727 90.8939 15.1602C90.2559 14.8346 89.5723 14.6719 88.8431 14.6719C88.114 14.6719 87.4239 14.7956 86.7728 15.043C86.1348 15.2904 85.5749 15.6549 85.0931 16.1367C84.6244 16.6185 84.2533 17.2174 83.9798 17.9336C83.7064 18.6367 83.5697 19.444 83.5697 20.3555C83.5697 21.2279 83.7064 22.0156 83.9798 22.7188C84.2533 23.4089 84.6244 24.0013 85.0931 24.4961C85.5749 24.9909 86.1348 25.375 86.7728 25.6484C87.4239 25.9089 88.114 26.0391 88.8431 26.0391C89.5723 26.0391 90.2559 25.8828 90.8939 25.5703C91.5449 25.2448 92.1114 24.8216 92.5931 24.3008C93.0749 23.7669 93.4525 23.1615 93.7259 22.4844C94.0124 21.7943 94.1556 21.0846 94.1556 20.3555ZM99.5267 28.3633C99.5267 29.8346 99.2468 31.2148 98.6869 32.5039C98.127 33.793 97.3587 34.9193 96.3822 35.8828C95.4186 36.8464 94.2858 37.6081 92.9837 38.168C91.6947 38.7279 90.3145 39.0078 88.8431 39.0078L86.1673 38.9688V33.6367L88.8041 33.6758C89.6374 33.6758 90.347 33.5651 90.933 33.3438C91.5189 33.1354 92.0137 32.8424 92.4173 32.4648C92.821 32.1003 93.14 31.6771 93.3744 31.1953C93.6218 30.7135 93.8171 30.2057 93.9603 29.6719C93.752 30.0104 93.4525 30.2904 93.0619 30.5117C92.6712 30.7201 92.2351 30.8893 91.7533 31.0195C91.2845 31.1628 90.7897 31.2604 90.2689 31.3125C89.7611 31.3646 89.2858 31.3906 88.8431 31.3906C87.3718 31.3906 85.9851 31.1367 84.683 30.6289C83.3939 30.1211 82.2611 29.3984 81.2845 28.4609C80.321 27.5104 79.5593 26.3516 78.9994 24.9844C78.4395 23.6172 78.1595 22.0742 78.1595 20.3555C78.1595 18.7799 78.4395 17.3151 78.9994 15.9609C79.5593 14.6068 80.321 13.4349 81.2845 12.4453C82.2611 11.4557 83.3939 10.681 84.683 10.1211C85.9851 9.5612 87.3718 9.28125 88.8431 9.28125C89.5202 9.28125 90.1908 9.36589 90.8548 9.53516C91.5189 9.70443 92.1634 9.9388 92.7884 10.2383C93.4134 10.5378 94.0059 10.8893 94.5658 11.293C95.1387 11.6966 95.6726 12.1328 96.1673 12.6016L98.2377 10.1211H99.5267V28.3633ZM113.778 4.39844C113.778 4.89323 113.68 5.35547 113.485 5.78516C113.303 6.21484 113.049 6.59245 112.723 6.91797C112.398 7.23047 112.013 7.48438 111.571 7.67969C111.141 7.86198 110.679 7.95312 110.184 7.95312C109.689 7.95312 109.221 7.86198 108.778 7.67969C108.348 7.48438 107.971 7.23047 107.645 6.91797C107.332 6.59245 107.079 6.21484 106.883 5.78516C106.701 5.35547 106.61 4.89323 106.61 4.39844C106.61 3.91667 106.701 3.46094 106.883 3.03125C107.079 2.58854 107.332 2.21094 107.645 1.89844C107.971 1.57292 108.348 1.31901 108.778 1.13672C109.221 0.941406 109.689 0.84375 110.184 0.84375C110.679 0.84375 111.141 0.941406 111.571 1.13672C112.013 1.31901 112.398 1.57292 112.723 1.89844C113.049 2.21094 113.303 2.58854 113.485 3.03125C113.68 3.46094 113.778 3.91667 113.778 4.39844ZM112.86 31H107.489V10.082H112.86V31ZM126.154 31H120.822V10.082H122.111L123.869 12.1133C124.728 11.332 125.698 10.7331 126.779 10.3164C127.873 9.88672 129.012 9.67188 130.197 9.67188C131.473 9.67188 132.677 9.91927 133.81 10.4141C134.943 10.8958 135.933 11.5664 136.779 12.4258C137.625 13.2721 138.289 14.2682 138.771 15.4141C139.266 16.5469 139.513 17.7578 139.513 19.0469V31H134.181V19.0469C134.181 18.5 134.077 17.9857 133.869 17.5039C133.66 17.0091 133.374 16.5794 133.009 16.2148C132.645 15.8503 132.222 15.5638 131.74 15.3555C131.258 15.1471 130.744 15.043 130.197 15.043C129.637 15.043 129.11 15.1471 128.615 15.3555C128.12 15.5638 127.69 15.8503 127.326 16.2148C126.961 16.5794 126.675 17.0091 126.466 17.5039C126.258 17.9857 126.154 18.5 126.154 19.0469V31Z" fill="#8A4AF3"/>
</svg>
