<svg width="800" height="800" viewBox="0 0 800 800" fill="none" xmlns="http://www.w3.org/2000/svg">
<path fill-rule="evenodd" clip-rule="evenodd" d="M400 156.716C265.638 156.716 156.716 265.638 156.716 400C156.716 534.362 265.638 643.284 400 643.284C534.362 643.284 643.284 534.362 643.284 400C643.284 265.638 534.362 156.716 400 156.716ZM133 400C133 252.54 252.54 133 400 133C547.46 133 667 252.54 667 400C667 547.46 547.46 667 400 667C252.54 667 133 547.46 133 400Z" fill="black" stroke="black" stroke-width="19"/>
<path d="M416.717 245.799C416.717 239.096 416.717 235.745 418.927 233.663C421.139 231.582 424.222 231.846 430.391 232.373C454.458 234.43 477.847 241.898 498.859 254.312C523.832 269.066 544.57 290.287 558.992 315.842C573.41 341.398 581 370.387 581 399.895C581 429.403 573.41 458.393 558.992 483.947C544.57 509.502 523.832 530.723 498.859 545.48C473.885 560.234 445.554 568 416.717 568C387.88 568 359.55 560.234 334.576 545.48C313.563 533.065 295.549 516.072 281.775 495.774C278.244 490.571 276.479 487.968 277.135 484.97C277.791 481.969 280.627 480.294 286.3 476.943L409.872 403.938C413.212 401.965 414.883 400.979 415.8 399.354C416.717 397.726 416.717 395.754 416.717 391.806V245.799Z" fill="black"/>
</svg>
