<svg width="120" height="120" viewBox="0 0 120 120" fill="none" xmlns="http://www.w3.org/2000/svg">
<circle cx="60" cy="60" r="60" fill="white"/>
<g clip-path="url(#clip0_229_121)">
<path d="M47.8125 58.125C48.3688 58.125 48.9125 58.2899 49.375 58.599C49.8376 58.908 50.198 59.3473 50.4109 59.8612C50.6238 60.3751 50.6795 60.9406 50.571 61.4862C50.4624 62.0318 50.1946 62.5329 49.8012 62.9262C49.4079 63.3196 48.9068 63.5874 48.3612 63.696C47.8156 63.8045 47.2501 63.7488 46.7362 63.5359C46.2223 63.323 45.783 62.9626 45.474 62.5C45.165 62.0375 45 61.4938 45 60.9375C45 60.1916 45.2963 59.4762 45.8238 58.9488C46.3512 58.4213 47.0666 58.125 47.8125 58.125ZM47.8125 54.375C46.5146 54.375 45.2458 54.7599 44.1666 55.481C43.0874 56.2021 42.2462 57.227 41.7495 58.4261C41.2528 59.6253 41.1229 60.9448 41.3761 62.2178C41.6293 63.4908 42.2543 64.6601 43.1721 65.5779C44.0899 66.4957 45.2592 67.1207 46.5322 67.3739C47.8052 67.6271 49.1247 67.4972 50.3239 67.0005C51.523 66.5038 52.5479 65.6626 53.269 64.5834C53.9901 63.5042 54.375 62.2354 54.375 60.9375C54.375 59.197 53.6836 57.5278 52.4529 56.2971C51.2222 55.0664 49.553 54.375 47.8125 54.375Z" fill="black"/>
<path d="M76.875 56.2499H61.875C60.8804 56.2499 59.9266 56.645 59.2234 57.3482C58.5201 58.0515 58.125 59.0053 58.125 59.9999V71.2499H37.5V49.8749L60 37.7624L83.4938 50.3999L85.2562 47.0999L60.8812 33.9749C60.61 33.8304 60.3073 33.7549 60 33.7549C59.6927 33.7549 59.39 33.8304 59.1187 33.9749L34.7437 47.0999C34.4444 47.2593 34.1938 47.497 34.0188 47.7875C33.8438 48.0781 33.7509 48.4107 33.75 48.7499V86.2499H37.5V74.9999H82.5V86.2499H86.25V65.6249C86.25 63.1385 85.2623 60.7539 83.5041 58.9958C81.746 57.2376 79.3614 56.2499 76.875 56.2499ZM61.875 71.2499V59.9999H76.875C78.3668 59.9999 79.7976 60.5925 80.8525 61.6474C81.9074 62.7023 82.5 64.133 82.5 65.6249V71.2499H61.875Z" fill="black"/>
</g>
<defs>
<clipPath id="clip0_229_121">
<rect width="60" height="60" fill="white" transform="translate(30 30)"/>
</clipPath>
</defs>
</svg>
