<!DOCTYPE svg PUBLIC "-//W3C//DTD SVG 1.1//EN" "http://www.w3.org/Graphics/SVG/1.1/DTD/svg11.dtd">
<!-- Uploaded to: SVG Repo, www.svgrepo.com, Transformed by: SVG Repo Mixer Tools -->
<svg fill="#ffffff" width="800px" height="800px" viewBox="0 0 24 24" xmlns="http://www.w3.org/2000/svg" stroke="#ffffff">
<g id="SVGRepo_bgCarrier" stroke-width="0"/>
<g id="SVGRepo_tracerCarrier" stroke-linecap="round" stroke-linejoin="round"/>
<g id="SVGRepo_iconCarrier">
<path d="M7,4V2A1,1,0,0,1,9,2V4A1,1,0,0,1,7,4ZM2,9H4A1,1,0,0,0,4,7H2A1,1,0,0,0,2,9Zm21,4v9a1,1,0,0,1-1,1H8a1,1,0,0,1-1-1V8A1,1,0,0,1,8,7h9a1.13,1.13,0,0,1,.707.293l5,5A1.089,1.089,0,0,1,23,13Zm-2,1H17a1,1,0,0,1-1-1V9H9V21H21Z"/>
</g>
</svg>