<?xml version="1.0" encoding="iso-8859-1"?>
<!-- Uploaded to: SVG Repo, www.svgrepo.com, Generator: SVG Repo Mixer Tools -->
<svg fill="#000000" height="800px" width="800px" version="1.1" id="Capa_1" xmlns="http://www.w3.org/2000/svg" xmlns:xlink="http://www.w3.org/1999/xlink" 
	 viewBox="0 0 490 490" xml:space="preserve">
<path id="XMLID_1085_" d="M415,120h-15V25c0-8.284-6.716-15-15-15H105c-8.284,0-15,6.716-15,15v95H75c-41.355,0-75,33.645-75,75v210
	c0,41.355,33.645,75,75,75h340c41.355,0,75-33.645,75-75V195C490,153.645,456.355,120,415,120z M120,40h250v80H120V40z M460,405
	c0,24.813-20.187,45-45,45H75c-24.813,0-45-20.187-45-45V195c0-24.813,20.187-45,45-45h340c24.813,0,45,20.187,45,45V405z
	 M343.12,219.003c-11.632,0-22.74,3.408-32.224,9.758c-9.484-6.351-20.593-9.758-32.224-9.758c-15.728,0-30.498,6.229-41.591,17.54
	c-4.009,4.087-7.309,8.625-9.901,13.457H105c-8.284,0-15,6.716-15,15s6.716,15,15,15h115.068c0.251,10.448,3.183,20.84,8.796,30H195
	c-8.284,0-15,6.716-15,15s6.716,15,15,15h60c0.385,0,0.765-0.015,1.142-0.043l30.036,30.626
	c6.586,6.715,15.364,10.413,24.717,10.414c0.001,0,0.001,0,0.001,0c9.354,0,18.133-3.698,24.719-10.414
	c0,0,48.657-49.611,49.106-50.07c22.697-23.155,22.694-60.82-0.01-83.97C373.618,225.232,358.848,219.003,343.12,219.003z
	 M363.292,299.518c-0.003,0.003-0.008,0.008-0.011,0.011c-0.541,0.552-49.085,50.049-49.085,50.049c-1.151,1.173-2.43,1.42-3.3,1.42
	s-2.149-0.247-3.3-1.42l-49.097-50.06c-11.348-11.571-11.348-30.397,0-41.969c5.405-5.511,12.569-8.546,20.173-8.546
	c7.603,0,14.767,3.035,20.172,8.547c0.298,0.303,0.584,0.612,0.865,0.925c1.991,2.215,6.082,4.969,11.488,4.969
	c4.155,0,8.091-1.869,10.872-4.956c0.286-0.317,0.576-0.631,0.879-0.938c5.404-5.511,12.567-8.546,20.171-8.546
	s14.767,3.035,20.172,8.546C374.641,269.12,374.641,287.946,363.292,299.518z"/>
</svg>