<svg width="300" height="44" viewBox="0 0 300 44" fill="none" xmlns="http://www.w3.org/2000/svg">
<path d="M59.7715 35C58.3535 35 57.0215 34.735 55.7754 34.2051C54.5293 33.6608 53.4336 32.9232 52.4883 31.9922C51.5573 31.0469 50.8197 29.9512 50.2754 28.7051C49.7454 27.459 49.4805 26.127 49.4805 24.709V17.877H46.623V12.0332H49.4805V2.83789H55.3242V12.0332H64.2188V17.877H55.3242V24.709C55.3242 25.3249 55.4388 25.9049 55.668 26.4492C55.8971 26.9792 56.2122 27.4447 56.6133 27.8457C57.0143 28.2467 57.487 28.569 58.0312 28.8125C58.5755 29.0417 59.1556 29.1562 59.7715 29.1562H64.2188V35H59.7715ZM77.7926 35H71.9273V11.9902H73.3453L75.2789 14.7188C76.2242 13.8594 77.2984 13.2005 78.5016 12.7422C79.7047 12.2695 80.9508 12.0332 82.2398 12.0332H87.4176V17.877H82.2398C81.624 17.877 81.0439 17.9915 80.4996 18.2207C79.9553 18.4499 79.4827 18.765 79.0816 19.166C78.6806 19.5671 78.3655 20.0397 78.1363 20.584C77.9072 21.1283 77.7926 21.7083 77.7926 22.3242V35ZM101.464 5.73828C101.464 6.28255 101.357 6.79102 101.142 7.26367C100.941 7.73633 100.662 8.15169 100.304 8.50977C99.9458 8.85352 99.5233 9.13281 99.0363 9.34766C98.5637 9.54818 98.0552 9.64844 97.5109 9.64844C96.9667 9.64844 96.451 9.54818 95.9641 9.34766C95.4914 9.13281 95.076 8.85352 94.718 8.50977C94.3742 8.15169 94.0949 7.73633 93.8801 7.26367C93.6796 6.79102 93.5793 6.28255 93.5793 5.73828C93.5793 5.20833 93.6796 4.70703 93.8801 4.23438C94.0949 3.7474 94.3742 3.33203 94.718 2.98828C95.076 2.63021 95.4914 2.35091 95.9641 2.15039C96.451 1.93555 96.9667 1.82812 97.5109 1.82812C98.0552 1.82812 98.5637 1.93555 99.0363 2.15039C99.5233 2.35091 99.9458 2.63021 100.304 2.98828C100.662 3.33203 100.941 3.7474 101.142 4.23438C101.357 4.70703 101.464 5.20833 101.464 5.73828ZM100.454 35H94.5461V11.9902H100.454V35ZM115.253 43.7656H109.345V11.9902H110.763L113.104 14.7617C113.634 14.2604 114.214 13.7878 114.845 13.3438C115.475 12.8997 116.126 12.5202 116.8 12.2051C117.487 11.8757 118.196 11.6178 118.927 11.4316C119.657 11.2454 120.395 11.1523 121.139 11.1523C122.758 11.1523 124.276 11.446 125.694 12.0332C127.126 12.6061 128.373 13.4225 129.432 14.4824C130.507 15.5423 131.352 16.8242 131.968 18.3281C132.583 19.8177 132.891 21.472 132.891 23.291C132.891 25.1816 132.583 26.8861 131.968 28.4043C131.352 29.9082 130.507 31.1901 129.432 32.25C128.373 33.2956 127.126 34.0977 125.694 34.6562C124.276 35.2148 122.758 35.4941 121.139 35.4941C120.624 35.4941 120.108 35.4368 119.593 35.3223C119.091 35.2077 118.59 35.0573 118.089 34.8711C117.602 34.6706 117.115 34.4486 116.628 34.2051C116.155 33.9616 115.697 33.7109 115.253 33.4531V43.7656ZM127.005 23.291C127.005 22.3171 126.847 21.4434 126.532 20.6699C126.231 19.8965 125.816 19.2448 125.286 18.7148C124.756 18.1706 124.133 17.7552 123.417 17.4688C122.701 17.1823 121.942 17.0391 121.139 17.0391C120.337 17.0391 119.578 17.1823 118.862 17.4688C118.16 17.7552 117.544 18.1706 117.014 18.7148C116.485 19.2448 116.062 19.8965 115.747 20.6699C115.446 21.4434 115.296 22.3171 115.296 23.291C115.296 24.222 115.446 25.0742 115.747 25.8477C116.062 26.6211 116.485 27.2799 117.014 27.8242C117.544 28.3685 118.16 28.791 118.862 29.0918C119.578 29.3926 120.337 29.543 121.139 29.543C121.942 29.543 122.701 29.3926 123.417 29.0918C124.133 28.791 124.756 28.3685 125.286 27.8242C125.816 27.2799 126.231 26.6211 126.532 25.8477C126.847 25.0742 127.005 24.222 127.005 23.291ZM151.922 35C150.504 35 149.172 34.735 147.926 34.2051C146.68 33.6608 145.584 32.9232 144.639 31.9922C143.708 31.0469 142.97 29.9512 142.426 28.7051C141.896 27.459 141.631 26.127 141.631 24.709V17.877H138.774V12.0332H141.631V2.83789H147.475V12.0332H156.37V17.877H147.475V24.709C147.475 25.3249 147.59 25.9049 147.819 26.4492C148.048 26.9792 148.363 27.4447 148.764 27.8457C149.165 28.2467 149.638 28.569 150.182 28.8125C150.726 29.0417 151.306 29.1562 151.922 29.1562H156.37V35H151.922ZM170.996 5.73828C170.996 6.28255 170.889 6.79102 170.674 7.26367C170.473 7.73633 170.194 8.15169 169.836 8.50977C169.478 8.85352 169.055 9.13281 168.568 9.34766C168.096 9.54818 167.587 9.64844 167.043 9.64844C166.499 9.64844 165.983 9.54818 165.496 9.34766C165.023 9.13281 164.608 8.85352 164.25 8.50977C163.906 8.15169 163.627 7.73633 163.412 7.26367C163.212 6.79102 163.111 6.28255 163.111 5.73828C163.111 5.20833 163.212 4.70703 163.412 4.23438C163.627 3.7474 163.906 3.33203 164.25 2.98828C164.608 2.63021 165.023 2.35091 165.496 2.15039C165.983 1.93555 166.499 1.82812 167.043 1.82812C167.587 1.82812 168.096 1.93555 168.568 2.15039C169.055 2.35091 169.478 2.63021 169.836 2.98828C170.194 3.33203 170.473 3.7474 170.674 4.23438C170.889 4.70703 170.996 5.20833 170.996 5.73828ZM169.986 35H164.078V11.9902H169.986V35ZM208.138 35H202.295V20.3906C202.295 19.9896 202.216 19.61 202.058 19.252C201.915 18.8939 201.707 18.5788 201.435 18.3066C201.163 18.0345 200.848 17.8268 200.49 17.6836C200.132 17.526 199.752 17.4473 199.351 17.4473C198.95 17.4473 198.571 17.526 198.212 17.6836C197.869 17.8268 197.561 18.0345 197.289 18.3066C197.031 18.5788 196.823 18.8939 196.666 19.252C196.522 19.61 196.451 19.9896 196.451 20.3906V35H190.586V20.3906C190.586 19.9896 190.507 19.61 190.349 19.252C190.206 18.8939 189.998 18.5788 189.726 18.3066C189.454 18.0345 189.139 17.8268 188.781 17.6836C188.423 17.526 188.043 17.4473 187.642 17.4473C187.241 17.4473 186.862 17.526 186.504 17.6836C186.16 17.8268 185.852 18.0345 185.58 18.3066C185.322 18.5788 185.114 18.8939 184.957 19.252C184.813 19.61 184.742 19.9896 184.742 20.3906V35H178.877V11.9902H180.295L181.884 13.752C182.701 13.0645 183.596 12.5345 184.57 12.1621C185.558 11.7754 186.582 11.582 187.642 11.582C188.716 11.582 189.762 11.7826 190.779 12.1836C191.81 12.5846 192.712 13.2793 193.486 14.2676C193.844 13.7806 194.252 13.3652 194.711 13.0215C195.169 12.6777 195.649 12.3984 196.15 12.1836C196.666 11.9688 197.196 11.8184 197.74 11.7324C198.284 11.6322 198.821 11.582 199.351 11.582C200.569 11.582 201.707 11.8112 202.767 12.2695C203.841 12.7279 204.772 13.3581 205.56 14.1602C206.362 14.9479 206.992 15.8789 207.451 16.9531C207.909 18.0273 208.138 19.1732 208.138 20.3906V35ZM225.988 29.3711C226.217 29.4427 226.446 29.4928 226.675 29.5215C226.904 29.5358 227.133 29.543 227.363 29.543C227.935 29.543 228.487 29.4642 229.017 29.3066C229.547 29.1491 230.041 28.9271 230.499 28.6406C230.972 28.3398 231.387 27.9818 231.745 27.5664C232.118 27.1367 232.418 26.6641 232.648 26.1484L236.945 30.4668C236.4 31.2402 235.77 31.9349 235.054 32.5508C234.352 33.1667 233.586 33.6895 232.755 34.1191C231.939 34.5488 231.072 34.8711 230.155 35.0859C229.253 35.3151 228.322 35.4297 227.363 35.4297C225.744 35.4297 224.219 35.1289 222.786 34.5273C221.368 33.9258 220.122 33.0879 219.048 32.0137C217.988 30.9395 217.15 29.6647 216.534 28.1895C215.918 26.6999 215.611 25.0671 215.611 23.291C215.611 21.472 215.918 19.8105 216.534 18.3066C217.15 16.8027 217.988 15.5208 219.048 14.4609C220.122 13.401 221.368 12.5775 222.786 11.9902C224.219 11.403 225.744 11.1094 227.363 11.1094C228.322 11.1094 229.26 11.224 230.177 11.4531C231.094 11.6823 231.96 12.0117 232.777 12.4414C233.607 12.8711 234.381 13.401 235.097 14.0312C235.813 14.6471 236.443 15.3418 236.988 16.1152L225.988 29.3711ZM228.995 17.2754C228.723 17.1751 228.451 17.1107 228.179 17.082C227.921 17.0534 227.649 17.0391 227.363 17.0391C226.56 17.0391 225.801 17.1895 225.085 17.4902C224.383 17.7767 223.767 18.1921 223.238 18.7363C222.722 19.2806 222.314 19.9395 222.013 20.7129C221.712 21.472 221.562 22.3314 221.562 23.291C221.562 23.5059 221.569 23.7493 221.583 24.0215C221.612 24.2936 221.648 24.5729 221.691 24.8594C221.748 25.1315 221.812 25.3965 221.884 25.6543C221.956 25.9121 222.049 26.1413 222.163 26.3418L228.995 17.2754ZM251.571 32.8086C251.571 33.3242 251.478 33.8112 251.292 34.2695C251.106 34.7135 250.848 35.1003 250.518 35.4297C250.189 35.7591 249.802 36.0169 249.358 36.2031C248.914 36.4036 248.434 36.5039 247.919 36.5039C247.417 36.5039 246.938 36.4036 246.479 36.2031C246.035 36.0169 245.641 35.7591 245.298 35.4297C244.968 35.1003 244.703 34.7135 244.503 34.2695C244.317 33.8112 244.223 33.3242 244.223 32.8086C244.223 32.3073 244.317 31.8346 244.503 31.3906C244.703 30.9466 244.968 30.5599 245.298 30.2305C245.641 29.901 246.035 29.6432 246.479 29.457C246.938 29.2565 247.417 29.1562 247.919 29.1562C248.434 29.1562 248.914 29.2565 249.358 29.457C249.802 29.6432 250.189 29.901 250.518 30.2305C250.848 30.5599 251.106 30.9466 251.292 31.3906C251.478 31.8346 251.571 32.3073 251.571 32.8086Z" fill="#1E293B"/>
<path d="M282.633 35H281.215L278.938 31.8418C278.379 32.3431 277.785 32.8158 277.155 33.2598C276.539 33.6895 275.887 34.069 275.2 34.3984C274.512 34.7135 273.803 34.9642 273.073 35.1504C272.357 35.3366 271.626 35.4297 270.881 35.4297C269.263 35.4297 267.737 35.1576 266.305 34.6133C264.887 34.069 263.641 33.2812 262.567 32.25C261.507 31.2044 260.669 29.9297 260.053 28.4258C259.437 26.9219 259.129 25.2103 259.129 23.291C259.129 21.5007 259.437 19.8607 260.053 18.3711C260.669 16.8672 261.507 15.5781 262.567 14.5039C263.641 13.4297 264.887 12.599 266.305 12.0117C267.737 11.4102 269.263 11.1094 270.881 11.1094C271.626 11.1094 272.364 11.2025 273.094 11.3887C273.825 11.5749 274.534 11.8327 275.221 12.1621C275.909 12.4915 276.56 12.8783 277.176 13.3223C277.806 13.7663 278.394 14.2461 278.938 14.7617L281.215 12.0332H282.633V35ZM276.725 23.291C276.725 22.4889 276.567 21.7155 276.252 20.9707C275.952 20.2116 275.536 19.5456 275.006 18.9727C274.476 18.3854 273.853 17.9199 273.137 17.5762C272.435 17.2181 271.683 17.0391 270.881 17.0391C270.079 17.0391 269.32 17.1751 268.604 17.4473C267.902 17.7194 267.286 18.1204 266.756 18.6504C266.241 19.1803 265.832 19.8392 265.532 20.627C265.231 21.4004 265.08 22.2884 265.08 23.291C265.08 24.2936 265.231 25.1888 265.532 25.9766C265.832 26.75 266.241 27.4017 266.756 27.9316C267.286 28.4616 267.902 28.8626 268.604 29.1348C269.32 29.4069 270.079 29.543 270.881 29.543C271.683 29.543 272.435 29.3711 273.137 29.0273C273.853 28.6693 274.476 28.2038 275.006 27.6309C275.536 27.0436 275.952 26.3776 276.252 25.6328C276.567 24.8737 276.725 24.0931 276.725 23.291ZM298.441 5.73828C298.441 6.28255 298.334 6.79102 298.119 7.26367C297.919 7.73633 297.639 8.15169 297.281 8.50977C296.923 8.85352 296.501 9.13281 296.014 9.34766C295.541 9.54818 295.033 9.64844 294.488 9.64844C293.944 9.64844 293.428 9.54818 292.941 9.34766C292.469 9.13281 292.053 8.85352 291.695 8.50977C291.352 8.15169 291.072 7.73633 290.857 7.26367C290.657 6.79102 290.557 6.28255 290.557 5.73828C290.557 5.20833 290.657 4.70703 290.857 4.23438C291.072 3.7474 291.352 3.33203 291.695 2.98828C292.053 2.63021 292.469 2.35091 292.941 2.15039C293.428 1.93555 293.944 1.82812 294.488 1.82812C295.033 1.82812 295.541 1.93555 296.014 2.15039C296.501 2.35091 296.923 2.63021 297.281 2.98828C297.639 3.33203 297.919 3.7474 298.119 4.23438C298.334 4.70703 298.441 5.20833 298.441 5.73828ZM297.432 35H291.523V11.9902H297.432V35Z" fill="#8A4AF3"/>
<path d="M17.1919 9.40348C17.1919 8.96462 17.1919 8.74518 17.3373 8.60891C17.4828 8.47265 17.6857 8.48991 18.0915 8.52444C19.6749 8.65912 21.2136 9.14809 22.596 9.96089C24.239 10.9269 25.6033 12.3164 26.5521 13.9897C27.5007 15.6629 28 17.561 28 19.4931C28 21.4252 27.5007 23.3233 26.5521 24.9966C25.6033 26.6698 24.239 28.0592 22.596 29.0254C20.9529 29.9915 19.0891 30.5 17.1919 30.5C15.2947 30.5 13.4309 29.9915 11.7879 29.0254C10.4055 28.2126 9.22036 27.1 8.31414 25.7709C8.08187 25.4302 7.96572 25.2598 8.00888 25.0635C8.05202 24.867 8.23864 24.7573 8.61184 24.5379L16.7416 19.7578C16.9613 19.6287 17.0712 19.5641 17.1316 19.4577C17.1919 19.3511 17.1919 19.222 17.1919 18.9635V9.40348Z" fill="#1E293B"/>
<path d="M17.1919 9.40348C17.1919 8.96462 17.1919 8.74518 17.3373 8.60891C17.4828 8.47265 17.6857 8.48991 18.0915 8.52444C19.6749 8.65912 21.2136 9.14809 22.596 9.96089C24.239 10.9269 25.6033 12.3164 26.5521 13.9897C27.5007 15.6629 28 17.561 28 19.4931C28 21.4252 27.5007 23.3233 26.5521 24.9966C25.6033 26.6698 24.239 28.0592 22.596 29.0254C20.9529 29.9915 19.0891 30.5 17.1919 30.5C15.2947 30.5 13.4309 29.9915 11.7879 29.0254C10.4055 28.2126 9.22036 27.1 8.31414 25.7709C8.08187 25.4302 7.96572 25.2598 8.00888 25.0635C8.05202 24.867 8.23864 24.7573 8.61184 24.5379L16.7416 19.7578C16.9613 19.6287 17.0712 19.5641 17.1316 19.4577C17.1919 19.3511 17.1919 19.222 17.1919 18.9635V9.40348Z" stroke="#1E293B" stroke-width="2"/>
<path d="M17 35.5C25.8366 35.5 33 28.3366 33 19.5C33 10.6634 25.8366 3.5 17 3.5C8.16344 3.5 1 10.6634 1 19.5C1 28.3366 8.16344 35.5 17 35.5Z" stroke="#1E293B" stroke-width="2"/>
</svg>
