<svg width="401" height="57" viewBox="0 0 401 57" fill="none" xmlns="http://www.w3.org/2000/svg">
<path d="M80.0361 44.6096C78.1292 44.6096 76.3378 44.2533 74.6621 43.5406C72.9864 42.8087 71.5128 41.8167 70.2416 40.5647C68.9896 39.2934 67.9976 37.8199 67.2657 36.1442C66.553 34.4684 66.1967 32.6771 66.1967 30.7702V21.5825H62.354V13.7238H66.1967V1.35794H74.0554V13.7238H86.0168V21.5825H74.0554V30.7702C74.0554 31.5985 74.2095 32.3786 74.5176 33.1105C74.8258 33.8232 75.2496 34.4492 75.7889 34.9885C76.3282 35.5278 76.9638 35.9612 77.6958 36.2887C78.4277 36.5968 79.2078 36.7509 80.0361 36.7509H86.0168V44.6096H80.0361Z" fill="#1E293B"/>
<path d="M104.271 44.6096H96.3833V13.666H98.2902L100.89 17.3353C102.162 16.1797 103.606 15.2936 105.224 14.6773C106.842 14.0416 108.518 13.7238 110.252 13.7238H117.215V21.5825H110.252C109.423 21.5825 108.643 21.7366 107.911 22.0448C107.179 22.353 106.544 22.7767 106.004 23.316C105.465 23.8554 105.041 24.491 104.733 25.2229C104.425 25.9549 104.271 26.735 104.271 27.5632V44.6096Z" fill="#1E293B"/>
<path d="M136.104 5.25839C136.104 5.99033 135.96 6.67411 135.671 7.30974C135.401 7.94537 135.026 8.50395 134.544 8.98549C134.063 9.44776 133.494 9.82336 132.84 10.1123C132.204 10.3819 131.52 10.5168 130.788 10.5168C130.056 10.5168 129.363 10.3819 128.708 10.1123C128.072 9.82336 127.514 9.44776 127.032 8.98549C126.57 8.50395 126.194 7.94537 125.905 7.30974C125.636 6.67411 125.501 5.99033 125.501 5.25839C125.501 4.54571 125.636 3.87156 125.905 3.23593C126.194 2.58104 126.57 2.02246 127.032 1.56018C127.514 1.07864 128.072 0.703045 128.708 0.433384C129.363 0.144461 130.056 0 130.788 0C131.52 0 132.204 0.144461 132.84 0.433384C133.494 0.703045 134.063 1.07864 134.544 1.56018C135.026 2.02246 135.401 2.58104 135.671 3.23593C135.96 3.87156 136.104 4.54571 136.104 5.25839ZM134.746 44.6096H126.801V13.666H134.746V44.6096Z" fill="#1E293B"/>
<path d="M154.647 56.3977H146.702V13.666H148.609L151.758 17.3931C152.471 16.719 153.251 16.0833 154.098 15.4862C154.946 14.8891 155.822 14.3787 156.728 13.955C157.652 13.5119 158.606 13.1652 159.588 12.9148C160.57 12.6644 161.562 12.5392 162.564 12.5392C164.74 12.5392 166.782 12.9341 168.689 13.7238C170.615 14.4943 172.291 15.5922 173.716 17.0175C175.161 18.4429 176.297 20.1668 177.126 22.1892C177.954 24.1924 178.368 26.4171 178.368 28.8634C178.368 31.4059 177.954 33.698 177.126 35.7397C176.297 37.7622 175.161 39.4861 173.716 40.9114C172.291 42.3175 170.615 43.3962 168.689 44.1474C166.782 44.8985 164.74 45.2741 162.564 45.2741C161.87 45.2741 161.177 45.1971 160.484 45.043C159.809 44.8889 159.135 44.6867 158.461 44.4363C157.806 44.1666 157.151 43.8681 156.496 43.5406C155.861 43.2132 155.244 42.8761 154.647 42.5294V56.3977ZM170.451 28.8634C170.451 27.5536 170.24 26.3786 169.816 25.3385C169.411 24.2984 168.853 23.422 168.14 22.7093C167.427 21.9774 166.59 21.4188 165.626 21.0336C164.663 20.6483 163.643 20.4557 162.564 20.4557C161.485 20.4557 160.464 20.6483 159.501 21.0336C158.557 21.4188 157.729 21.9774 157.017 22.7093C156.304 23.422 155.736 24.2984 155.312 25.3385C154.907 26.3786 154.705 27.5536 154.705 28.8634C154.705 30.1153 154.907 31.2614 155.312 32.3015C155.736 33.3416 156.304 34.2277 157.017 34.9596C157.729 35.6916 158.557 36.2598 159.501 36.6643C160.464 37.0687 161.485 37.271 162.564 37.271C163.643 37.271 164.663 37.0687 165.626 36.6643C166.59 36.2598 167.427 35.6916 168.14 34.9596C168.853 34.2277 169.411 33.3416 169.816 32.3015C170.24 31.2614 170.451 30.1153 170.451 28.8634Z" fill="#1E293B"/>
<path d="M203.961 44.6096C202.054 44.6096 200.262 44.2533 198.587 43.5406C196.911 42.8087 195.437 41.8167 194.166 40.5647C192.914 39.2934 191.922 37.8199 191.19 36.1442C190.478 34.4684 190.121 32.6771 190.121 30.7702V21.5825H186.279V13.7238H190.121V1.35794H197.98V13.7238H209.941V21.5825H197.98V30.7702C197.98 31.5985 198.134 32.3786 198.442 33.1105C198.75 33.8232 199.174 34.4492 199.714 34.9885C200.253 35.5278 200.888 35.9612 201.62 36.2887C202.352 36.5968 203.132 36.7509 203.961 36.7509H209.941V44.6096H203.961Z" fill="#1E293B"/>
<path d="M229.611 5.25839C229.611 5.99033 229.467 6.67411 229.178 7.30974C228.908 7.94537 228.533 8.50395 228.051 8.98549C227.569 9.44776 227.001 9.82336 226.346 10.1123C225.711 10.3819 225.027 10.5168 224.295 10.5168C223.563 10.5168 222.87 10.3819 222.215 10.1123C221.579 9.82336 221.021 9.44776 220.539 8.98549C220.077 8.50395 219.701 7.94537 219.412 7.30974C219.143 6.67411 219.008 5.99033 219.008 5.25839C219.008 4.54571 219.143 3.87156 219.412 3.23593C219.701 2.58104 220.077 2.02246 220.539 1.56018C221.021 1.07864 221.579 0.703045 222.215 0.433384C222.87 0.144461 223.563 0 224.295 0C225.027 0 225.711 0.144461 226.346 0.433384C227.001 0.703045 227.569 1.07864 228.051 1.56018C228.533 2.02246 228.908 2.58104 229.178 3.23593C229.467 3.87156 229.611 4.54571 229.611 5.25839ZM228.253 44.6096H220.308V13.666H228.253V44.6096Z" fill="#1E293B"/>
<path d="M279.56 44.6096H271.701V24.9629C271.701 24.4236 271.595 23.9131 271.384 23.4316C271.191 22.9501 270.912 22.5263 270.546 22.1604C270.18 21.7944 269.756 21.5151 269.274 21.3225C268.793 21.1106 268.283 21.0047 267.743 21.0047C267.204 21.0047 266.693 21.1106 266.212 21.3225C265.75 21.5151 265.335 21.7944 264.97 22.1604C264.623 22.5263 264.344 22.9501 264.132 23.4316C263.939 23.9131 263.843 24.4236 263.843 24.9629V44.6096H255.955V24.9629C255.955 24.4236 255.849 23.9131 255.637 23.4316C255.445 22.9501 255.165 22.5263 254.799 22.1604C254.433 21.7944 254.01 21.5151 253.528 21.3225C253.047 21.1106 252.536 21.0047 251.997 21.0047C251.458 21.0047 250.947 21.1106 250.466 21.3225C250.003 21.5151 249.589 21.7944 249.223 22.1604C248.877 22.5263 248.597 22.9501 248.385 23.4316C248.193 23.9131 248.096 24.4236 248.096 24.9629V44.6096H240.209V13.666H242.116L244.254 16.0352C245.352 15.1106 246.556 14.398 247.865 13.8972C249.194 13.3771 250.572 13.1171 251.997 13.1171C253.442 13.1171 254.848 13.3867 256.215 13.9261C257.602 14.4654 258.815 15.3996 259.856 16.7286C260.337 16.0737 260.886 15.5151 261.502 15.0529C262.119 14.5906 262.764 14.215 263.438 13.9261C264.132 13.6371 264.844 13.4349 265.576 13.3193C266.308 13.1845 267.031 13.1171 267.743 13.1171C269.38 13.1171 270.912 13.4253 272.337 14.0416C273.782 14.658 275.034 15.5055 276.093 16.5841C277.172 17.6435 278.019 18.8955 278.636 20.3401C279.252 21.7848 279.56 23.3257 279.56 24.9629V44.6096Z" fill="#1E293B"/>
<path d="M303.564 37.0399C303.872 37.1362 304.18 37.2036 304.488 37.2421C304.797 37.2614 305.105 37.271 305.413 37.271C306.183 37.271 306.925 37.1651 307.638 36.9532C308.35 36.7413 309.015 36.4428 309.631 36.0575C310.267 35.653 310.825 35.1715 311.307 34.6129C311.808 34.0351 312.212 33.3994 312.52 32.706L318.299 38.5134C317.567 39.5535 316.719 40.4877 315.756 41.3159C314.812 42.1442 313.782 42.8472 312.665 43.425C311.567 44.0029 310.402 44.4363 309.169 44.7252C307.955 45.0334 306.703 45.1875 305.413 45.1875C303.236 45.1875 301.185 44.783 299.259 43.974C297.352 43.165 295.676 42.0382 294.232 40.5936C292.806 39.149 291.679 37.4347 290.851 35.4508C290.023 33.4476 289.609 31.2518 289.609 28.8634C289.609 26.4171 290.023 24.1828 290.851 22.1604C291.679 20.1379 292.806 18.414 294.232 16.9886C295.676 15.5633 297.352 14.4558 299.259 13.666C301.185 12.8763 303.236 12.4814 305.413 12.4814C306.703 12.4814 307.965 12.6355 309.198 12.9437C310.431 13.2519 311.596 13.6949 312.694 14.2728C313.811 14.8506 314.851 15.5633 315.814 16.4108C316.777 17.239 317.625 18.1732 318.357 19.2133L303.564 37.0399ZM307.609 20.7735C307.243 20.6387 306.877 20.552 306.511 20.5135C306.164 20.475 305.798 20.4557 305.413 20.4557C304.334 20.4557 303.313 20.658 302.35 21.0624C301.407 21.4477 300.578 22.0063 299.866 22.7382C299.172 23.4701 298.623 24.3562 298.219 25.3963C297.814 26.4171 297.612 27.5728 297.612 28.8634C297.612 29.1523 297.622 29.4797 297.641 29.8457C297.679 30.2117 297.728 30.5873 297.785 30.9725C297.862 31.3385 297.949 31.6948 298.045 32.0415C298.142 32.3882 298.267 32.6964 298.421 32.966L307.609 20.7735Z" fill="#1E293B"/>
<path d="M337.969 41.6626C337.969 42.356 337.843 43.0109 337.593 43.6273C337.343 44.2244 336.996 44.7445 336.553 45.1875C336.11 45.6305 335.59 45.9772 334.993 46.2276C334.396 46.4972 333.75 46.6321 333.057 46.6321C332.383 46.6321 331.738 46.4972 331.121 46.2276C330.524 45.9772 329.994 45.6305 329.532 45.1875C329.089 44.7445 328.733 44.2244 328.463 43.6273C328.213 43.0109 328.088 42.356 328.088 41.6626C328.088 40.9885 328.213 40.3528 328.463 39.7557C328.733 39.1586 329.089 38.6386 329.532 38.1955C329.994 37.7525 330.524 37.4058 331.121 37.1554C331.738 36.8858 332.383 36.7509 333.057 36.7509C333.75 36.7509 334.396 36.8858 334.993 37.1554C335.59 37.4058 336.11 37.7525 336.553 38.1955C336.996 38.6386 337.343 39.1586 337.593 39.7557C337.843 40.3528 337.969 40.9885 337.969 41.6626Z" fill="#1E293B"/>
<path d="M379.741 44.6096H377.834L374.772 40.3625C374.02 41.0366 373.221 41.6722 372.374 42.2694C371.545 42.8472 370.669 43.3576 369.744 43.8006C368.82 44.2244 367.866 44.5615 366.884 44.8119C365.921 45.0623 364.939 45.1875 363.937 45.1875C361.76 45.1875 359.709 44.8215 357.783 44.0896C355.876 43.3576 354.2 42.2982 352.756 40.9114C351.33 39.5053 350.204 37.7911 349.375 35.7686C348.547 33.7461 348.133 31.4444 348.133 28.8634C348.133 26.4557 348.547 24.2502 349.375 22.247C350.204 20.2246 351.33 18.491 352.756 17.0464C354.2 15.6018 355.876 14.4846 357.783 13.6949C359.709 12.8859 361.76 12.4814 363.937 12.4814C364.939 12.4814 365.931 12.6066 366.913 12.857C367.895 13.1074 368.849 13.4542 369.773 13.8972C370.698 14.3402 371.574 14.8602 372.402 15.4574C373.25 16.0545 374.04 16.6997 374.772 17.3931L377.834 13.7238H379.741V44.6096ZM371.796 28.8634C371.796 27.7847 371.584 26.7446 371.16 25.743C370.756 24.7221 370.197 23.8265 369.484 23.056C368.772 22.2663 367.934 21.6403 366.971 21.178C366.027 20.6965 365.016 20.4557 363.937 20.4557C362.858 20.4557 361.838 20.6387 360.874 21.0047C359.931 21.3706 359.102 21.91 358.39 22.6226C357.696 23.3353 357.147 24.2213 356.743 25.2807C356.338 26.3208 356.136 27.515 356.136 28.8634C356.136 30.2117 356.338 31.4155 356.743 32.4749C357.147 33.515 357.696 34.3914 358.39 35.1041C359.102 35.8168 359.931 36.3561 360.874 36.722C361.838 37.088 362.858 37.271 363.937 37.271C365.016 37.271 366.027 37.0399 366.971 36.5776C367.934 36.096 368.772 35.47 369.484 34.6996C370.197 33.9099 370.756 33.0142 371.16 32.0126C371.584 30.9917 371.796 29.942 371.796 28.8634Z" fill="#8A4AF3"/>
<path d="M401 5.25839C401 5.99033 400.856 6.67411 400.567 7.30974C400.297 7.94537 399.921 8.50395 399.44 8.98549C398.958 9.44776 398.39 9.82336 397.735 10.1123C397.1 10.3819 396.416 10.5168 395.684 10.5168C394.952 10.5168 394.258 10.3819 393.604 10.1123C392.968 9.82336 392.409 9.44776 391.928 8.98549C391.466 8.50395 391.09 7.94537 390.801 7.30974C390.531 6.67411 390.397 5.99033 390.397 5.25839C390.397 4.54571 390.531 3.87156 390.801 3.23593C391.09 2.58104 391.466 2.02246 391.928 1.56018C392.409 1.07864 392.968 0.703045 393.604 0.433384C394.258 0.144461 394.952 0 395.684 0C396.416 0 397.1 0.144461 397.735 0.433384C398.39 0.703045 398.958 1.07864 399.44 1.56018C399.921 2.02246 400.297 2.58104 400.567 3.23593C400.856 3.87156 401 4.54571 401 5.25839ZM399.642 44.6096H391.697V13.666H399.642V44.6096Z" fill="#8A4AF3"/>
<path d="M17.6329 2.42587L14.4815 6.5774L12.9311 8.66356C12.4324 9.36553 11.8826 10.06 11.5796 10.7093C11.2569 11.3805 11.1761 12.0208 11.4089 12.5519C11.6336 13.0958 12.1831 13.6012 12.8451 14.0077C13.5155 14.4238 14.2528 14.7372 15.0701 15.0513C15.8742 15.363 16.6902 15.6593 17.5117 15.9426C20.8124 17.0801 24.1375 18.0158 27.5769 18.8992C29.3404 19.4142 31.2074 20.1039 32.6944 21.6423C33.4192 22.4122 33.9592 23.4239 34.1647 24.4708C34.3761 25.5185 34.3073 26.5499 34.1223 27.5036C33.9275 28.4566 33.6229 29.3529 33.2653 30.2063C33.0846 30.6304 32.8893 31.0508 32.6896 31.4554L32.1081 32.6238L29.7795 37.2787L26.8977 43.0199C25.7719 43.2574 24.6145 43.4122 23.4319 43.4736L27.3733 36.0826L29.816 31.4878L30.4211 30.3413C30.6135 29.973 30.793 29.6114 30.9615 29.2423C31.2916 28.5073 31.5613 27.7608 31.7314 27.0234C32.0773 25.5344 31.8974 24.1684 30.9744 23.157C30.0514 22.1254 28.5272 21.4321 26.9518 20.9496C23.5982 20.0031 20.1682 18.9502 16.8501 17.7147C16.0172 17.4046 15.1881 17.0824 14.3626 16.7392C13.5494 16.404 12.6676 16.0123 11.861 15.482C11.0635 14.9533 10.2279 14.2484 9.79613 13.1684C9.58225 12.6373 9.52529 12.0366 9.59717 11.4909C9.66975 10.9436 9.85202 10.4454 10.0775 10.0016C10.5463 9.09254 11.1212 8.43653 11.6397 7.73304L13.2548 5.66767L16.5169 1.58194L17.0102 0.971216C17.6799 0.810727 18.3616 0.679805 19.0538 0.581L17.6329 2.42587Z" fill="#1E293B"/>
<path d="M2.03703 13.4016C2.06265 16.2536 4.47134 18.7399 8.95912 20.6194C14.6535 23.0054 19.9847 24.854 20.0215 24.8668C20.943 25.3348 21.5988 26.1552 21.8168 27.1123C22.0345 28.07 21.7933 29.067 21.1552 29.8449L11.9905 41.018C5.00893 37.4017 0.25 30.2114 0.25 21.9298C0.25 18.9005 0.887858 16.0176 2.03703 13.4016Z" fill="#1E293B"/>
<path d="M24.5715 0.473633C35.6305 1.61105 44.25 10.7831 44.25 21.9298C44.25 22.0311 44.2467 22.1323 44.2453 22.2334C44.1526 22.065 44.0564 21.8976 43.9557 21.7323C41.904 18.3666 38.3922 15.9928 34.3236 15.221L19.9085 12.2402C19.3077 12.1268 18.8028 11.753 18.5476 11.2334C18.2925 10.7145 18.3197 10.1128 18.6194 9.61486L24.5715 0.473633Z" fill="#1E293B"/>
</svg>
